<?xml version="1.0" standalone="no"?><!DOCTYPE svg PUBLIC "-//W3C//DTD SVG 1.1//EN" "http://www.w3.org/Graphics/SVG/1.1/DTD/svg11.dtd"><svg width="100%" height="100%" viewBox="0 0 960 600" version="1.1" xmlns="http://www.w3.org/2000/svg" xmlns:xlink="http://www.w3.org/1999/xlink" xml:space="preserve" style="fill-rule:evenodd;clip-rule:evenodd;stroke-linejoin:round;stroke-miterlimit:1.41421;"><g id="Layer1"><path d="M353.187,60.308l-33.172,155.129l35.124,0l19.513,-91.955c3.171,-0.488 5.854,-0.976 8.049,-0.976c10.976,0 14.635,6.83 14.635,16.586c0,18.538 -12.928,48.051 -12.928,64.15c0,8.049 3.171,16.342 19.025,16.342c5.854,0 13.904,-1.22 24.148,-4.147c-5.854,-2.195 -9.513,-8.781 -9.513,-16.098c0,-15.367 11.952,-41.709 11.952,-61.71c0,-11.464 -3.903,-20.733 -16.83,-24.391c16.83,-10.001 26.343,-26.831 26.343,-41.71c0,-20.001 -16.83,-39.026 -55.369,-39.026c-40.733,0 -85.613,30.977 -85.613,63.418c0,17.561 9.268,23.659 26.098,23.659c-0.243,-2.195 -3.414,-4.146 -3.414,-16.586c0,-37.075 26.342,-59.271 65.856,-59.271c19.026,0 26.831,11.952 26.831,25.611c0,18.537 -14.391,42.441 -34.636,42.441l-1.951,0l11.952,-56.344l-36.1,4.878Z" style="fill:#000;fill-rule:nonzero;"/><path d="M507.097,91.285c-50.246,0 -66.833,58.54 -66.833,86.59c0,27.806 16.343,38.538 39.027,38.538c30.001,0 54.392,-28.294 58.295,-73.418c17.806,-2.927 33.904,-10.244 43.173,-20.245l-2.196,-6.586c-10.488,7.318 -26.342,14.635 -37.562,14.635c-0.732,0 -1.708,0 -2.683,-0.488c0,-25.61 -10.245,-39.026 -31.221,-39.026ZM489.047,194.461c-9.269,0 -12.439,-3.659 -12.439,-19.757c0,-23.904 15.122,-68.54 32.44,-68.54c6.342,0 8.781,3.903 9.269,14.147c-4.391,1.951 -7.562,6.342 -7.562,13.171c0,4.879 1.464,9.025 6.586,10.245c-3.903,28.781 -16.342,50.734 -28.294,50.734Z" style="fill:#000;fill-rule:nonzero;"/><path d="M550.757,171.777c-1.219,5.122 -1.707,9.756 -1.707,13.903c0,19.513 11.708,31.221 34.148,31.221c51.709,0 66.832,-53.905 66.832,-82.443c0,-30.977 -11.708,-41.709 -28.782,-41.709c-4.878,0 -10,0.732 -20.001,6.829l11.708,-54.88l-36.099,4.878l-26.099,122.201ZM625.395,133.482c0,25.611 -12.684,59.759 -28.538,59.759c-8.781,0 -12.928,-4.146 -12.928,-11.22c0,-1.707 0.244,-3.659 0.732,-5.61l13.415,-61.954c2.684,-3.171 10.977,-4.39 14.391,-4.39c8.781,0 12.928,11.464 12.928,23.415Z" style="fill:#000;fill-rule:nonzero;"/><path d="M379.157,395.822l32.096,-150.465c-4.906,-2.044 -11.448,-2.862 -16.15,-2.862c-23.919,0 -50.496,27.599 -71.144,60.309c-4.293,-0.409 -7.769,-0.614 -10.631,-0.614c-24.123,0 -41.705,11.244 -41.705,25.146c0,7.973 5.724,11.857 12.675,11.857c6.338,0 11.449,-3.066 11.449,-7.973c0,-2.862 -1.636,-6.337 -2.658,-6.337c2.658,-6.951 11.244,-9.813 23.919,-10.631c-17.786,31.279 -30.052,64.806 -30.052,83.206c0,21.261 16.355,21.67 27.394,21.67c-1.226,-1.84 -2.862,-4.907 -2.862,-11.449c0,-21.261 11.244,-60.104 26.577,-93.427c8.995,0.818 16.968,2.658 27.394,7.36l-15.741,74.21l29.439,0ZM367.299,312.617c-7.973,-3.271 -16.763,-5.52 -24.941,-7.156c11.448,-22.896 24.532,-41.909 36.799,-48.451l-11.858,55.607Z" style="fill:#000;fill-rule:nonzero;"/><path d="M428.221,256.806l-21.874,102.422c-1.023,4.906 -1.636,9.404 -1.636,13.288c0,17.173 9.609,24.533 21.875,24.533c11.039,0 31.278,-4.498 42.931,-37.821l-8.586,0c-3.067,10.222 -10.426,17.99 -18.399,17.99c-5.724,0 -8.382,-1.84 -8.382,-7.564c0,-1.84 0.204,-3.884 0.818,-6.542l23.51,-110.395l-30.257,4.089Z" style="fill:#000;fill-rule:nonzero;"/><path d="M514.084,291.764c-42.113,0 -56.015,49.065 -56.015,72.575c0,23.306 13.697,32.301 32.71,32.301c25.145,0 45.589,-23.715 48.86,-61.535c14.924,-2.454 28.416,-8.587 36.185,-16.969l-1.84,-5.519c-8.791,6.133 -22.079,12.266 -31.483,12.266c-0.613,0 -1.431,0 -2.249,-0.409c0,-21.466 -8.586,-32.71 -26.168,-32.71ZM498.956,378.241c-7.769,0 -10.426,-3.067 -10.426,-16.56c0,-20.034 12.675,-57.446 27.19,-57.446c5.315,0 7.36,3.271 7.768,11.857c-3.679,1.636 -6.337,5.315 -6.337,11.04c0,4.088 1.226,7.564 5.52,8.586c-3.271,24.123 -13.698,42.523 -23.715,42.523Z" style="fill:#000;fill-rule:nonzero;"/><path d="M628.773,273.16c0.409,-2.453 0.613,-5.11 0.613,-8.381c0,-13.289 -11.653,-22.08 -24.123,-22.08c-13.493,0 -31.074,5.52 -37.208,34.755l-24.736,116.733c-19.422,5.928 -35.163,11.857 -35.163,30.665c0,13.288 11.653,22.079 24.123,22.079c13.493,0 30.461,-5.52 36.594,-34.754l23.51,-110.395l15.129,0l1.431,-8.178l-14.924,0l3.475,-16.15c2.862,-13.698 9.813,-16.764 14.311,-16.764c4.088,0 7.768,2.249 7.768,6.951c0,1.84 -0.204,3.475 -0.409,5.519l9.609,0ZM519.4,421.99c0,-11.04 9.608,-16.764 22.488,-21.057l-2.658,11.857c-2.658,12.062 -7.36,15.946 -11.653,15.946c-4.497,0 -8.177,-3.884 -8.177,-6.746Z" style="fill:#000;fill-rule:nonzero;"/><path d="M634.702,291.355c-6.338,20.035 -13.698,40.274 -25.146,60.513c-5.52,2.658 -10.835,9.609 -10.835,19.013c0,12.47 8.995,26.168 29.848,26.168c16.763,0 40.887,-8.791 40.887,-35.368c0,-13.493 -2.045,-21.466 -4.498,-74.414l-30.256,4.088ZM624.071,359.228c0,-3.475 -2.044,-5.929 -4.702,-7.155c6.746,-13.084 12.47,-25.35 16.559,-38.639c2.045,31.483 3.884,37.821 3.884,48.452c0,14.31 -8.79,19.012 -17.785,19.012c-8.996,0 -12.471,-4.702 -12.471,-14.31c1.022,2.044 3.475,2.657 5.52,2.657c5.315,0 8.995,-5.111 8.995,-10.017Z" style="fill:#000;fill-rule:nonzero;"/><path d="M679.765,259.997c5.587,4.206 14.117,5.471 22.509,3.992c19.469,-3.433 28.929,-16.523 53.433,-20.844c25.512,-4.498 47.329,3.423 61.859,23.012l-1.896,1.026c-7.048,-4.641 -14.966,-6.36 -23.693,-4.821c-18.463,3.256 -32.049,18.458 -54.204,22.364c-25.512,4.498 -53.489,-8.912 -59.963,-24.038l1.955,-0.691Z" style="fill:#000;fill-rule:nonzero;"/><path d="M280.235,259.997c-5.587,4.206 -14.117,5.471 -22.509,3.992c-19.469,-3.433 -28.929,-16.523 -53.433,-20.844c-25.512,-4.498 -47.329,3.423 -61.859,23.012l1.896,1.026c7.048,-4.641 14.966,-6.36 23.693,-4.821c18.463,3.256 32.049,18.458 54.204,22.364c25.512,4.498 53.489,-8.912 59.963,-24.038l-1.955,-0.691Z" style="fill:#000;fill-rule:nonzero;"/><path d="M815.611,189.826c-5.587,4.206 -14.117,5.471 -22.509,3.991c-19.469,-3.433 -28.929,-16.522 -53.433,-20.843c-25.512,-4.499 -47.329,3.422 -61.859,23.012l1.896,1.026c7.048,-4.641 14.966,-6.36 23.693,-4.821c18.463,3.255 32.049,18.457 54.204,22.364c25.512,4.498 53.489,-8.913 59.963,-24.039l-1.955,-0.69Z" style="fill:#000;fill-rule:nonzero;"/><path d="M144.389,189.826c5.587,4.206 14.117,5.471 22.509,3.991c19.469,-3.433 28.929,-16.522 53.433,-20.843c25.512,-4.499 47.329,3.422 61.859,23.012l-1.896,1.026c-7.048,-4.641 -14.966,-6.36 -23.693,-4.821c-18.463,3.255 -32.049,18.457 -54.204,22.364c-25.512,4.498 -53.489,-8.913 -59.963,-24.039l1.955,-0.69Z" style="fill:#000;fill-rule:nonzero;"/><path d="M214.542,431.223l-15.163,66.667c-11.904,-2.5 -42.114,-9.725 -73.349,-19.598c-32.515,-10.277 -66.165,-23.298 -82.645,-30.335c11.122,-0.454 33.127,-0.186 54.021,-2.575c19.469,-2.227 37.924,-7.069 47.016,-8.818c-2.664,-3.12 -13.93,-15.851 -24.027,-29.849c-11.385,-15.781 -21.665,-32.995 -23.67,-36.511c14.005,5.973 46.887,18.689 79.539,28.37c27.74,8.224 55.314,13.736 71.008,16.589c-1.48,8.127 -2.774,15.258 -3.991,21.96c-10.067,-2.174 -28.739,-5.9 -28.739,-5.9Z" style="fill:#000;fill-rule:nonzero;"/><path d="M750.098,434.223l15.713,66.667c12.336,-2.5 43.642,-9.725 76.01,-19.598c33.695,-10.277 68.566,-23.298 85.644,-30.335c-11.526,-0.454 -34.33,-0.186 -55.981,-2.575c-20.176,-2.227 -39.3,-7.069 -48.722,-8.818c2.761,-3.12 14.435,-15.851 24.899,-29.849c11.798,-15.781 22.451,-32.995 24.529,-36.511c-14.514,5.973 -48.588,18.689 -82.425,28.37c-28.747,8.224 -57.321,13.736 -73.584,16.589c1.534,8.127 2.874,15.258 4.135,21.96c10.433,-2.174 29.782,-5.9 29.782,-5.9Z" style="fill:#000;fill-rule:nonzero;"/><path d="M196.775,528.062c7.607,-33.137 12.988,-56.609 20.423,-88.948c184.046,36.05 344.989,36.042 529.025,-0.008c7.187,31.333 12.761,55.561 20.401,88.956c-196.022,38.146 -373.816,38.155 -569.849,0ZM472.689,494.222l-21.155,-0.315l-0.189,12.679l20.539,0.306l-0.111,7.485l-20.54,-0.307l-0.263,17.635l21.155,0.316l-0.112,7.484l-29.118,-0.434l0.788,-52.768l29.118,0.435l-0.112,7.484ZM499.751,516.181l16.941,22.04l-9.738,0.264l-15.653,-21.186l-1.435,0.039l0.585,21.594l-7.961,0.215l-1.429,-52.754l9.328,-0.252c6.97,-0.189 12.04,0.984 15.208,3.52c3.496,2.823 5.309,6.626 5.438,11.409c0.101,3.736 -0.882,6.977 -2.95,9.723c-2.069,2.745 -4.847,4.542 -8.334,5.388ZM530.097,484.588l2.445,52.716l-7.955,0.37l-2.446,-52.717l7.956,-0.369ZM631.086,516.316l-22.463,2.414l-4.476,13.372l-8.53,0.916l19.972,-58.557l31.038,53.077l-8.666,0.931l-6.875,-12.153ZM333.556,530.343l6.198,-52.408l10.997,1.3c5.273,0.624 9.375,1.637 12.307,3.039c3.16,1.406 5.931,3.489 8.313,6.249c4.824,5.573 6.762,12.376 5.812,20.409c-0.953,8.056 -4.541,14.24 -10.764,18.552c-3.123,2.154 -6.292,3.535 -9.507,4.141c-3.012,0.631 -7.176,0.632 -12.494,0.003l-10.862,-1.285ZM412.905,510.311l21.758,1.453l-0.116,1.739c-0.264,3.957 -0.964,7.427 -2.1,10.411c-1.098,2.759 -2.808,5.293 -5.132,7.605c-5.256,5.175 -11.658,7.511 -19.206,7.007c-7.367,-0.492 -13.498,-3.574 -18.395,-9.244c-4.895,-5.694 -7.093,-12.281 -6.593,-19.761c0.51,-7.639 3.614,-13.941 9.313,-18.904c5.699,-4.986 12.38,-7.223 20.042,-6.712c4.115,0.275 7.901,1.373 11.359,3.294c3.298,1.91 6.469,4.862 9.514,8.857l-6.024,5.044c-3.935,-6.041 -9.007,-9.268 -15.214,-9.683c-5.57,-0.372 -10.37,1.237 -14.401,4.828c-4.026,3.522 -6.229,8.125 -6.609,13.809c-0.392,5.866 1.389,10.837 5.341,14.915c3.698,3.787 7.844,5.834 12.436,6.14c3.911,0.262 7.512,-0.822 10.802,-3.252c3.293,-2.452 5.245,-5.519 5.856,-9.2l-13.13,-0.877l0.499,-7.469ZM667.496,501.599l19.465,19.845l-9.636,1.432l-18.083,-19.153l-1.42,0.211l3.174,21.367l-7.878,1.17l-7.753,-52.201l9.23,-1.371c6.897,-1.024 12.07,-0.468 15.521,1.669c3.809,2.383 6.065,5.941 6.768,10.674c0.549,3.696 -0.038,7.032 -1.762,10.006c-1.723,2.974 -4.266,5.091 -7.626,6.351ZM342.344,523.845l3.564,0.421c3.553,0.421 6.55,0.396 8.992,-0.072c2.447,-0.514 4.722,-1.518 6.826,-3.013c4.313,-3.093 6.806,-7.49 7.48,-13.193c0.68,-5.747 -0.692,-10.636 -4.116,-14.666c-3.085,-3.601 -7.999,-5.799 -14.743,-6.597l-3.564,-0.421l-4.439,37.541ZM298.279,471.868l-4.863,31.413c-0.694,4.481 -0.469,7.871 0.674,10.169c1.72,3.333 4.562,5.306 8.525,5.92c3.986,0.617 7.303,-0.403 9.951,-3.06c1.774,-1.777 3.013,-4.94 3.717,-9.489l4.863,-31.413l7.87,1.218l-5.197,33.575c-0.851,5.494 -3.263,9.756 -7.237,12.784c-4.464,3.367 -9.499,4.616 -15.106,3.748c-5.608,-0.868 -10.018,-3.58 -13.233,-8.135c-2.872,-4.088 -3.883,-8.879 -3.032,-14.374l5.198,-33.574l7.87,1.218ZM241.508,515.795l9.111,-51.981l7.81,1.369c3.479,0.61 6.204,1.365 8.174,2.266c1.993,0.904 3.596,2.122 4.808,3.653c1.227,1.58 2.093,3.432 2.6,5.557c0.525,2.151 0.609,4.247 0.251,6.29c-0.653,3.726 -2.631,6.629 -5.934,8.711c2.596,1.426 4.484,3.457 5.664,6.093c1.207,2.618 1.539,5.475 0.996,8.573c-0.712,4.062 -2.75,7.244 -6.115,9.546c-2.031,1.426 -4.183,2.286 -6.455,2.582c-2.471,0.238 -5.479,0.046 -9.026,-0.576l-11.884,-2.083ZM713.659,469.199l-5.424,5.193c-1.652,-1.768 -3.082,-2.839 -4.292,-3.212c-1.275,-0.452 -2.79,-0.474 -4.543,-0.065c-2.152,0.501 -3.797,1.527 -4.933,3.078c-1.141,1.529 -1.5,3.204 -1.077,5.024c0.584,2.507 2.919,4.093 7.003,4.756l5.615,0.904c4.565,0.715 8.096,2.063 10.593,4.044c2.496,1.981 4.155,4.735 4.977,8.264c1.1,4.727 0.434,9 -1.999,12.818c-2.451,3.846 -6.028,6.317 -10.733,7.412c-4.461,1.039 -8.452,0.576 -11.975,-1.388c-3.477,-1.975 -6.129,-5.276 -7.955,-9.905l7.453,-3.56c1.058,2.936 2.165,4.877 3.321,5.825c2.115,1.847 4.703,2.414 7.766,1.701c2.419,-0.563 4.239,-1.841 5.459,-3.833c1.221,-1.992 1.542,-4.231 0.964,-6.716c-0.233,-0.999 -0.585,-1.882 -1.056,-2.65c-0.471,-0.767 -1.082,-1.432 -1.833,-1.994c-0.751,-0.563 -1.663,-1.04 -2.738,-1.434c-1.074,-0.393 -2.319,-0.717 -3.735,-0.972l-5.441,-0.909c-7.727,-1.337 -12.258,-4.867 -13.591,-10.593c-0.899,-3.862 -0.175,-7.434 2.173,-10.718c2.342,-3.306 5.71,-5.471 10.104,-6.494c5.925,-1.379 11.224,0.429 15.897,5.424ZM570.369,507.326l21.751,-1.55l0.124,1.739c0.282,3.955 0.065,7.488 -0.649,10.6c-0.709,2.883 -2.055,5.629 -4.039,8.238c-4.495,5.848 -10.516,9.041 -18.062,9.579c-7.364,0.525 -13.86,-1.685 -19.49,-6.63c-5.631,-4.967 -8.713,-11.189 -9.245,-18.667c-0.545,-7.637 1.665,-14.305 6.627,-20.004c4.961,-5.722 11.271,-8.856 18.93,-9.402c4.114,-0.293 8.015,0.275 11.704,1.702c3.529,1.439 7.076,3.928 10.64,7.466l-5.273,5.824c-4.728,-5.443 -10.195,-7.943 -16.4,-7.501c-5.568,0.397 -10.102,2.65 -13.602,6.76c-3.504,4.042 -5.053,8.904 -4.649,14.586c0.418,5.865 2.865,10.545 7.34,14.041c4.183,3.242 8.57,4.7 13.162,4.373c3.909,-0.278 7.327,-1.847 10.253,-4.705c2.924,-2.881 4.436,-6.187 4.536,-9.918l-13.126,0.935l-0.532,-7.466ZM250.645,509.797l4.848,0.85c3.546,0.621 6.271,0.382 8.176,-0.719c2.014,-1.196 3.224,-2.951 3.629,-5.263c0.393,-2.244 -0.118,-4.277 -1.534,-6.098c-1.374,-1.791 -4.172,-3.056 -8.391,-3.796l-3.973,-0.696l-2.755,15.722ZM627.058,509.221l-9.699,-17.006l-6.239,18.718l15.938,-1.712ZM489.679,510.402l2.528,-0.068c7.539,-0.205 11.231,-3.188 11.075,-8.951c-0.146,-5.398 -3.886,-7.998 -11.221,-7.8l-2.836,0.077l0.454,16.742ZM656.803,497.071l2.501,-0.372c7.461,-1.108 10.768,-4.513 9.921,-10.216c-0.794,-5.341 -4.819,-7.473 -12.077,-6.395l-2.806,0.416l2.461,16.567ZM254.551,487.51l2.457,0.431c2.918,0.511 5.169,0.24 6.753,-0.812c1.584,-1.053 2.597,-2.836 3.037,-5.35c0.429,-2.446 0.059,-4.425 -1.111,-5.937c-1.169,-1.512 -3.078,-2.5 -5.726,-2.964l-2.761,-0.484l-2.649,15.116Z" style="fill:#000;"/></g></svg>